<?xml version="1.0" encoding="UTF-8" standalone="no"?>
<!-- Created with Inkscape (http://www.inkscape.org/) -->

<svg
   width="210mm"
   height="297mm"
   viewBox="0 0 210 297"
   version="1.1"
   id="svg5"
   inkscape:version="1.2.2 (732a01da63, 2022-12-09)"
   sodipodi:docname="Logo.svg"
   xmlns:inkscape="http://www.inkscape.org/namespaces/inkscape"
   xmlns:sodipodi="http://sodipodi.sourceforge.net/DTD/sodipodi-0.dtd"
   xmlns="http://www.w3.org/2000/svg"
   xmlns:svg="http://www.w3.org/2000/svg">
  <sodipodi:namedview
     id="namedview7"
     pagecolor="#ffffff"
     bordercolor="#000000"
     borderopacity="0.25"
     inkscape:showpageshadow="2"
     inkscape:pageopacity="0.0"
     inkscape:pagecheckerboard="0"
     inkscape:deskcolor="#d1d1d1"
     inkscape:document-units="mm"
     showgrid="false"
     inkscape:zoom="2.025849"
     inkscape:cx="272.97197"
     inkscape:cy="577.28882"
     inkscape:window-width="1920"
     inkscape:window-height="991"
     inkscape:window-x="-9"
     inkscape:window-y="-9"
     inkscape:window-maximized="1"
     inkscape:current-layer="layer1" />
  <defs
     id="defs2">
    <rect
       x="40.488894"
       y="657.59549"
       width="72.600776"
       height="64.223763"
       id="rect113" />
  </defs>
  <g
     inkscape:label="Capa 1"
     inkscape:groupmode="layer"
     id="layer1">
    <text
       xml:space="preserve"
       transform="scale(0.26458333)"
       id="text111"
       style="white-space:pre;shape-inside:url(#rect113);display:inline;fill:#000000" />
    <path
       id="path227"
       style="font-weight:bold;font-size:53.7703px;font-family:'DejaVu Sans';-inkscape-font-specification:'DejaVu Sans Bold';stroke-width:4.48086"
       d="m 75.044512,171.34871 c 2.63261,-0.20229 4.79242,-0.5332 6.47919,-0.99373 3.00811,-0.83841 5.5868,-2.2501 7.73545,-4.23489 1.88007,-1.72814 3.27675,-3.72144 4.18992,-5.97999 0.91318,-2.27568 1.36943,-4.85932 1.36943,-7.75095 0,-2.85743 -0.45625,-5.41591 -1.36943,-7.67447 -0.91317,-2.25856 -2.30985,-4.25186 -4.18992,-5.98 -2.13075,-1.98479 -4.69151,-3.38774 -7.6817,-4.20904 -1.67988,-0.47385 -3.85788,-0.81354 -6.53294,-1.01958 v 7.56595 c 2.37443,0.44173 4.30312,1.32104 5.78104,2.64221 2.22028,1.9848 3.33055,4.87644 3.33055,8.67493 0,3.81559 -1.11925,6.72417 -3.35742,8.72608 -1.47473,1.32969 -3.3947,2.21484 -5.75417,2.66134 z"
       inkscape:export-filename="logo.jpg"
       inkscape:export-xdpi="96"
       inkscape:export-ydpi="96" />
    <path
       id="path510"
       style="stroke-width:0.433116"
       inkscape:transform-center-y="-2.4091342"
       d="M 52.866247,133.50606 41.942204,152.42764 31.01766,171.34871 h 12.289047 l 4.779771,-8.27875 4.779769,-8.27876 4.77977,8.27876 4.780272,8.27875 H 74.715336 L 63.790792,152.42764 Z" />
    <path
       id="path571"
       style="font-weight:bold;font-size:53.7703px;font-family:'DejaVu Sans';-inkscape-font-specification:'DejaVu Sans Bold';stroke-width:4.48086"
       d="m 115.98518,133.50606 c -2.63261,0.20229 -4.79243,0.5332 -6.4792,0.99373 -3.00811,0.83841 -5.5868,2.2501 -7.73545,4.23489 -1.880068,1.72814 -3.276748,3.72144 -4.189922,5.97999 -0.913172,2.27568 -1.369425,4.85932 -1.369425,7.75095 0,2.85743 0.456253,5.41591 1.369425,7.67447 0.913174,2.25856 2.309854,4.25186 4.189922,5.98 2.13075,1.98479 4.69151,3.38774 7.68171,4.20904 1.67988,0.47385 3.85788,0.81354 6.53294,1.01958 v -7.56595 c -2.37443,-0.44173 -4.30313,-1.32104 -5.78105,-2.64221 -2.22027,-1.9848 -3.33055,-4.87644 -3.33055,-8.67493 0,-3.81559 1.11925,-6.72417 3.35742,-8.72608 1.47474,-1.32969 3.39471,-2.21484 5.75418,-2.66134 z" />
  </g>
</svg>
